<?xml version="1.0" encoding="UTF-8" standalone="no"?>
<!-- Created with Inkscape (http://www.inkscape.org/) -->

<svg
   version="1.1"
   id="svg1"
   width="270"
   height="270"
   viewBox="0 0 270 270"
   sodipodi:docname="head_diamond_compnet_32x32.svg"
   inkscape:version="1.4 (86a8ad7, 2024-10-11)"
   xmlns:inkscape="http://www.inkscape.org/namespaces/inkscape"
   xmlns:sodipodi="http://sodipodi.sourceforge.net/DTD/sodipodi-0.dtd"
   xmlns="http://www.w3.org/2000/svg"
   xmlns:svg="http://www.w3.org/2000/svg">
  <defs
     id="defs1">
    <inkscape:path-effect
       effect="bspline"
       id="path-effect1"
       is_visible="true"
       lpeversion="1.3"
       weight="33.333333"
       steps="2"
       helper_size="0"
       apply_no_weight="true"
       apply_with_weight="true"
       only_selected="false"
       uniform="false" />
  </defs>
  <sodipodi:namedview
     id="namedview1"
     pagecolor="#ffffff"
     bordercolor="#000000"
     borderopacity="0.25"
     inkscape:showpageshadow="2"
     inkscape:pageopacity="0.0"
     inkscape:pagecheckerboard="0"
     inkscape:deskcolor="#d1d1d1"
     showgrid="false"
     inkscape:zoom="0.76426913"
     inkscape:cx="237.48179"
     inkscape:cy="336.9232"
     inkscape:window-width="1920"
     inkscape:window-height="1009"
     inkscape:window-x="-8"
     inkscape:window-y="-8"
     inkscape:window-maximized="1"
     inkscape:current-layer="g1" />
  <g
     inkscape:groupmode="layer"
     inkscape:label="Image"
     id="g1">
    <path
       style="fill:#24221c"
       d="m 190.24628,6.4893123 c 2.1329,1.4707249 6.3987,4.4121747 10.05812,7.1584847 3.65942,2.746309 6.71233,5.297372 9.6854,7.991242 2.97307,2.693871 7.88567,7.510451 10.8902,11.16326 3.00452,3.652809 6.12034,8.121686 8.62759,12.124695 2.50726,4.00301 4.40582,7.539926 5.97194,10.961296 1.56612,3.421371 2.7997,6.726989 3.7731,10.230282 0.9734,3.503292 1.68657,7.204045 2.08171,10.480846 0.39514,3.276802 0.47224,6.129465 0.42405,10.119469 -0.0482,3.990005 -0.22166,9.117089 -0.5879,13.242001 -0.36623,4.124912 -0.9252,7.247422 -1.85042,10.986842 -0.92522,3.73942 -2.21663,8.09551 -3.76829,12.34572 -1.55167,4.25021 -3.3635,8.39428 -5.28139,12.42282 -1.9179,4.02854 -3.94174,7.94132 -5.87891,11.33377 -1.93717,3.39245 -3.78755,6.26439 -5.09826,8.37503 -1.31072,2.11064 -2.08172,3.45988 -2.52986,4.28871 -0.44815,0.82883 -0.57344,1.13723 -0.65053,1.35408 -0.0771,0.21684 -0.10599,0.34213 0.13978,1.19989 0.24577,0.85776 0.76618,2.44792 1.38781,4.60195 0.62163,2.15402 1.34444,4.87176 1.9998,7.54621 0.65536,2.67445 1.24324,5.30546 1.85041,7.94618 0.60718,2.64072 1.23361,5.291 1.72513,8.1823 0.49152,2.8913 0.8481,6.02345 1.09868,8.47622 0.25058,2.45278 0.39514,4.22606 0.49633,5.92229 0.10119,1.69623 0.15902,3.31531 0.14456,4.23569 -0.0145,0.92039 -0.10119,1.14206 -0.26985,1.32035 -0.16866,0.1783 -0.41923,0.31322 -0.73728,0.41442 -0.31805,0.1012 -0.70354,0.16866 -1.72032,0.17347 -1.01678,0.005 -2.66477,-0.053 -4.92481,-0.19275 -2.26003,-0.13975 -5.13197,-0.36141 -7.50283,-0.61199 -2.37086,-0.25058 -4.24051,-0.53006 -5.89337,-0.66499 -1.65286,-0.13493 -3.08883,-0.12529 -3.96103,-0.0626 -0.8722,0.0626 -1.1806,0.17829 -1.41672,0.33731 -0.23612,0.15903 -0.39996,0.36141 -0.56862,0.60717 -0.16866,0.24576 -0.34214,0.53489 -0.39032,1.84562 -0.0482,1.31073 0.0289,3.64298 0.0723,5.60906 0.0434,1.96608 0.053,3.56588 -1e-5,4.53928 -0.053,0.9734 -0.16866,1.32034 -0.30841,1.59983 -0.13975,0.27949 -0.30358,0.49152 -0.56862,0.63126 -0.26504,0.13975 -0.63125,0.20721 -1.67213,0.24575 -1.04087,0.0386 -2.75633,0.0482 -3.97549,0.0626 -1.21916,0.0145 -1.94196,0.0337 -2.45757,0.14454 -0.51561,0.11083 -0.82401,0.31322 -1.17096,0.51079 -0.34696,0.19757 -0.73246,0.39032 -1.03604,0.62163 -0.30359,0.2313 -0.52524,0.50114 -0.71318,1.01194 -0.18794,0.5108 -0.34214,1.26252 -0.31804,2.01908 0.0241,0.75655 0.22648,1.5179 0.35659,2.11061 0.13011,0.59272 0.18793,1.01677 0.36141,1.6384 0.17348,0.62163 0.4626,1.44081 0.7421,2.22146 0.27949,0.78065 0.54933,1.52272 0.7469,2.06725 0.19757,0.54453 0.32286,0.89147 0.37587,1.13723 0.053,0.24576 0.0337,0.39033 -0.053,0.5879 -0.0867,0.19757 -0.24093,0.44814 -0.75173,0.85774 -0.5108,0.40961 -1.37816,0.97821 -2.17327,1.50346 -0.79511,0.52526 -1.51791,1.00712 -2.16363,1.5131 -0.64573,0.50597 -1.21433,1.03603 -1.8215,1.66248 -0.60718,0.62645 -1.25288,1.34925 -1.75404,1.94678 -0.50115,0.59754 -0.85774,1.06977 -1.19024,1.62876 -0.3325,0.55898 -0.64089,1.20469 -0.85774,2.06726 -0.21684,0.86257 -0.34213,1.94196 -0.40477,3.32015 -0.0626,1.37819 -0.0626,3.05509 -0.16867,4.35135 -0.10601,1.29627 -0.31803,2.21182 -0.66017,3.06475 -0.34214,0.85293 -0.81437,1.6432 -1.42154,2.37084 -0.60718,0.72764 -1.34926,1.39262 -2.12509,1.86486 -0.77583,0.47225 -1.58537,0.75173 -2.26965,0.98785 -0.68427,0.23613 -1.24323,0.42888 -2.3082,0.53007 -1.06497,0.10119 -2.63586,0.11083 -4.26462,-0.11566 -1.62877,-0.22649 -3.31531,-0.68909 -4.7706,-1.27217 -1.45528,-0.58308 -2.67923,-1.28661 -4.07669,-2.21664 -1.39746,-0.93004 -2.96836,-2.08652 -4.93926,-3.537 -1.97091,-1.45047 -4.3417,-3.19483 -6.74148,-5.17537 -2.39979,-1.98054 -4.8284,-4.19714 -7.71007,-7.01616 -2.88166,-2.81903 -6.2162,-6.2403 -8.74125,-8.83764 -2.52506,-2.59734 -4.24052,-4.37062 -6.38008,-6.57765 -2.13957,-2.20703 -4.70311,-4.84767 -6.88122,-7.04505 -2.17811,-2.19738 -3.97066,-3.95139 -5.02116,-5.02598 -1.05049,-1.07459 -1.35889,-1.46972 -1.30588,-1.51309 0.053,-0.0434 0.46742,0.26503 1.42155,0.98786 0.95414,0.72283 2.44793,1.86004 4.57304,3.51772 2.12511,1.65768 4.8814,3.83573 8.2835,6.16805 3.40211,2.33231 7.4498,4.81876 11.61328,7.09806 4.16347,2.27931 8.44246,4.35134 11.82527,5.95119 3.38281,1.59985 5.86926,2.72742 7.68113,3.53699 1.81188,0.80956 2.94909,1.30106 4.01887,1.64802 1.06978,0.34695 2.07206,0.54933 2.81898,0.46741 0.74692,-0.0819 1.23842,-0.44814 1.9227,-1.09387 0.68427,-0.64573 1.56127,-1.57091 2.14435,-2.42867 0.58308,-0.85775 0.8722,-1.64801 1.0264,-2.79972 0.1542,-1.1517 0.17346,-2.66477 0.20237,-4.19716 0.0289,-1.53239 0.0675,-3.084 0.14456,-3.99475 0.0771,-0.91076 0.19275,-1.18061 0.40478,-1.5613 0.21203,-0.38068 0.52043,-0.87219 0.90111,-1.27215 0.38069,-0.39996 0.83365,-0.70836 1.18542,-0.90593 0.35177,-0.19757 0.60235,-0.28431 1.21917,-0.41442 0.61681,-0.13011 1.59982,-0.30358 2.33228,-0.45778 0.73246,-0.15421 1.21433,-0.28913 1.59502,-0.4867 0.38068,-0.19757 0.66017,-0.45778 0.75654,-1.65286 0.0964,-1.19508 0.01,-3.32494 -0.10119,-5.61389 -0.11084,-2.28894 -0.24576,-4.73684 -0.36623,-6.3415 -0.12047,-1.60466 -0.22648,-2.36602 -0.0482,-2.87681 0.1783,-0.51079 0.64089,-0.771 1.62394,-0.93484 0.98305,-0.16385 2.48648,-0.23131 3.86948,-0.27467 1.383,-0.0434 2.6455,-0.0626 3.6189,-0.12046 0.9734,-0.0578 1.65766,-0.15419 2.1299,-0.32285 0.47224,-0.16866 0.73245,-0.4096 0.88665,-2.07211 0.15421,-1.66251 0.20239,-4.74647 0.26504,-6.74146 0.0626,-1.99498 0.13974,-2.90089 0.41441,-3.60444 0.27468,-0.70355 0.74691,-1.20469 1.22397,-1.55647 0.47707,-0.35177 0.95894,-0.55415 1.57093,-0.74209 0.612,-0.18793 1.35407,-0.3614 3.91289,-0.39513 2.55882,-0.0337 6.93419,0.0723 9.41105,0.0723 2.47686,-1e-5 3.0551,-0.10602 3.45025,-0.33732 0.39514,-0.23131 0.60716,-0.58789 0.66981,-1.43601 0.0626,-0.84812 -0.0241,-2.18772 -0.24095,-4.0237 -0.21685,-1.83598 -0.5638,-4.16822 -1.18543,-6.90532 -0.62163,-2.7371 -1.51791,-5.87889 -2.819,-10.38451 -1.30108,-4.50562 -3.0069,-10.37478 -4.04294,-13.9166 -1.03604,-3.54182 -1.40226,-4.75613 -1.59501,-5.45486 -0.19275,-0.69872 -0.21201,-0.88183 -0.0433,-1.10831 0.16866,-0.22649 0.52525,-0.49634 1.70105,-1.66732 1.1758,-1.17099 3.17074,-3.24302 5.9464,-6.66922 2.77565,-3.42621 6.33184,-8.20635 9.27132,-12.82279 2.93948,-4.61644 5.26209,-9.0689 6.92458,-12.7312 1.6625,-3.66231 2.66478,-6.53425 3.77312,-10.79411 1.10833,-4.25986 2.32264,-9.907363 2.93944,-15.323729 0.6168,-5.416366 0.63606,-10.601273 0.41921,-14.543065 -0.21685,-3.941793 -0.66981,-6.640259 -1.53238,-10.201384 -0.86258,-3.561126 -2.13471,-7.98468 -4.19718,-12.986635 -2.06247,-5.001954 -4.91513,-10.581993 -7.75342,-15.608031 -2.8383,-5.026038 -5.66205,-9.49778 -8.70755,-13.694978 -3.0455,-4.197198 -6.31257,-8.119609 -9.06894,-11.244615 -2.75637,-3.125006 -5.00188,-5.4524328 -6.31259,-6.8041035 -1.31071,-1.3516708 -1.68657,-1.7275289 -1.6998,-1.7897977 -0.0132,-0.062269 0.33616,0.1890476 0.51085,0.3147066 0.1747,0.125659 0.17466,0.125699 2.30756,1.5964239 z"
       id="path1"
       inkscape:path-effect="#path-effect1"
       inkscape:original-d="m 188.11338,5.0185874 c 4.2658,2.9414498 8.5316,5.8828996 12.7974,8.8243496 3.05304,2.551166 6.10595,5.10223 9.15892,7.653346 2.89969,2.829982 7.79926,7.659851 10.69889,10.489777 3.11593,4.469051 6.23175,8.937923 9.34762,13.406885 1.89864,3.537058 3.7972,7.073975 5.6958,10.610962 1.23364,3.305752 2.46722,6.611372 3.70083,9.917058 0.71319,3.7009 1.42636,7.401652 2.13954,11.102478 0.0771,2.852777 0.1542,5.70544 0.2313,8.55816 -0.17348,5.127289 -0.34695,10.254373 -0.52043,15.381557 -0.55899,3.12264 -1.11796,6.24515 -1.67694,9.36772 -1.29145,4.35627 -2.58286,8.71236 -3.8743,13.06854 -1.8119,4.14424 -3.62372,8.28831 -5.43559,12.43246 -2.02393,3.91293 -4.04777,7.82571 -6.07166,11.73856 -1.85045,2.87205 -3.70083,5.74399 -5.55124,8.61599 -0.77102,1.34928 -1.54201,2.69852 -2.31302,4.04777 -0.12529,0.30841 -0.25058,0.61681 -0.37586,0.92521 -0.0289,0.12529 -0.0578,0.25058 -0.0867,0.37587 0.52044,1.59023 1.04086,3.18039 1.56128,4.77059 0.72284,2.71785 1.44564,5.43559 2.16846,8.15339 0.5879,2.6311 1.17578,5.26211 1.76367,7.89316 0.62646,2.65039 1.25289,5.30067 1.87933,7.951 0.35659,3.13227 0.71318,6.26442 1.06977,9.39663 0.14456,1.77334 0.28912,3.54662 0.43369,5.31993 0.0578,1.61915 0.11565,3.23823 0.17347,4.85734 -0.0867,0.22167 -0.17347,0.44333 -0.26021,0.66499 -0.25058,0.13493 -0.50115,0.26985 -0.75173,0.40478 -0.38551,0.0675 -0.77101,0.13492 -1.15651,0.20239 -1.64806,-0.0578 -3.29605,-0.11565 -4.94407,-0.17348 -2.87205,-0.22167 -5.74399,-0.44333 -8.61599,-0.66499 -1.86972,-0.2795 -3.73937,-0.55898 -5.60906,-0.83847 -1.43603,0.01 -2.872,0.0193 -4.30799,0.0289 -0.30841,0.11566 -0.61681,0.2313 -0.92521,0.34695 -0.16384,0.2024 -0.32768,0.40478 -0.49152,0.60717 -0.17348,0.28913 -0.34695,0.57826 -0.52043,0.86738 0.0771,2.33234 0.15421,4.66459 0.23131,6.99688 0.01,1.59987 0.0193,3.19967 0.0289,4.79951 -0.11565,0.34696 -0.2313,0.6939 -0.34695,1.04085 -0.16385,0.21203 -0.32768,0.42406 -0.49152,0.63608 -0.36623,0.0675 -0.73245,0.13493 -1.09868,0.20239 -1.71552,0.01 -3.43098,0.0193 -5.14646,0.0289 -0.72284,0.0193 -1.44564,0.0386 -2.16846,0.0578 -0.3084,0.20239 -0.6168,0.40478 -0.9252,0.60717 -0.38551,0.19275 -0.77101,0.3855 -1.15651,0.57825 -0.22167,0.26986 -0.44333,0.5397 -0.66499,0.80956 -0.15421,0.75174 -0.30841,1.50346 -0.46261,2.25519 0.2024,0.76138 0.40478,1.52273 0.60717,2.2841 0.0578,0.42406 0.11565,0.84811 0.17348,1.27216 0.28913,0.81921 0.57825,1.63839 0.86738,2.45758 0.26986,0.74211 0.5397,1.48418 0.80955,2.22628 0.12529,0.34696 0.25058,0.6939 0.37587,1.04086 -0.0193,0.14456 -0.0386,0.28912 -0.0578,0.43369 -0.1542,0.25058 -0.3084,0.50115 -0.4626,0.75173 -0.8674,0.56862 -1.73476,1.13723 -2.60214,1.70585 -0.72284,0.48188 -1.44564,0.96375 -2.16846,1.44563 -0.56862,0.53008 -1.13723,1.06013 -1.70585,1.5902 -0.64573,0.72283 -1.29143,1.44563 -1.93715,2.16845 -0.35659,0.47225 -0.71318,0.94448 -1.06977,1.41672 -0.30841,0.64573 -0.6168,1.29144 -0.9252,1.93716 -0.12529,1.07942 -0.25058,2.15881 -0.37587,3.23822 0,1.67697 0,3.35387 0,5.03081 -0.21203,0.91559 -0.42405,1.83114 -0.63608,2.74671 -0.47225,0.79029 -0.94448,1.58056 -1.41672,2.37084 -0.74211,0.665 -1.48419,1.32998 -2.22628,1.99497 -0.80957,0.2795 -1.61911,0.55898 -2.42867,0.83847 -0.55899,0.19276 -1.11795,0.38551 -1.67693,0.57826 -1.57096,0.01 -3.14185,0.0193 -4.71277,0.0289 -1.68661,-0.46261 -3.37315,-0.92521 -5.05973,-1.38781 -1.22399,-0.70356 -2.44794,-1.40709 -3.67191,-2.11063 -1.57095,-1.15653 -3.14185,-2.31301 -4.71277,-3.46952 -2.37089,-1.74444 -4.74168,-3.4888 -7.11253,-5.2332 -2.42871,-2.21669 -4.85733,-4.43328 -7.286,-6.64992 -3.33466,-3.42141 -6.66919,-6.84268 -10.00379,-10.26401 -1.71552,-1.77335 -3.43098,-3.54663 -5.14646,-5.31994 -2.56365,-2.64075 -5.12719,-5.28139 -7.69078,-7.92208 -1.79263,-1.75407 -3.58518,-3.50808 -5.37777,-5.26211 -0.3084,-0.39515 -0.6168,-0.79028 -0.9252,-1.18542 0.41442,0.3084 0.82883,0.6168 1.24324,0.9252 1.49386,1.13726 2.98765,2.27447 4.48147,3.4117 2.7564,2.17813 5.51269,4.35618 8.26904,6.53427 4.04786,2.48654 8.09555,4.97299 12.14333,7.45948 4.27917,2.07212 8.55816,4.14415 12.83724,6.21623 2.48654,1.12762 4.97299,2.25519 7.45948,3.38279 1.13726,0.49152 2.27447,0.98303 3.4117,1.47455 1.00233,0.20239 2.00461,0.40477 3.00692,0.60716 0.49153,-0.36623 0.98303,-0.73245 1.47455,-1.09868 0.87703,-0.92523 1.75404,-1.85041 2.63105,-2.77562 0.28914,-0.7903 0.57826,-1.58056 0.86739,-2.37084 0.0193,-1.51313 0.0385,-3.0262 0.0578,-4.5393 0.0385,-1.55168 0.0771,-3.10329 0.11565,-4.65494 0.11565,-0.26986 0.2313,-0.53971 0.34695,-0.80956 0.30841,-0.49152 0.61681,-0.98303 0.92521,-1.47455 0.45297,-0.3084 0.90593,-0.6168 1.3589,-0.9252 0.25058,-0.0867 0.50115,-0.17348 0.75173,-0.26022 0.98305,-0.17348 1.96606,-0.34695 2.94909,-0.52043 0.48189,-0.13492 0.96376,-0.26985 1.44564,-0.40477 0.27949,-0.26022 0.55898,-0.52043 0.83847,-0.78065 -0.0867,-2.12994 -0.17348,-4.2598 -0.26022,-6.3897 -0.13493,-2.44799 -0.26985,-4.89589 -0.40478,-7.34383 -0.10601,-0.76138 -0.21202,-1.52274 -0.31803,-2.2841 0.46261,-0.26022 0.9252,-0.52043 1.3878,-0.78065 1.5035,-0.0675 3.00693,-0.13492 4.51039,-0.20239 1.26254,-0.0193 2.52504,-0.0385 3.78756,-0.0578 0.68428,-0.0964 1.36854,-0.19275 2.0528,-0.28913 0.26022,-0.24094 0.52043,-0.48188 0.78065,-0.72282 0.0482,-3.08408 0.0964,-6.16804 0.14456,-9.25206 0.0771,-0.90595 0.1542,-1.81186 0.2313,-2.7178 0.47225,-0.50116 0.94448,-1.0023 1.41672,-1.50346 0.48189,-0.20239 0.96376,-0.40477 1.44564,-0.60716 0.74211,-0.17348 1.48418,-0.34696 2.22628,-0.52043 4.37554,0.10601 8.75091,0.21203 13.12636,0.31804 0.57827,-0.10602 1.15651,-0.21203 1.73477,-0.31804 0.21203,-0.3566 0.42405,-0.71318 0.63608,-1.06977 -0.0867,-1.33965 -0.17348,-2.67925 -0.26022,-4.01887 -0.34696,-2.33234 -0.6939,-4.66458 -1.04086,-6.99687 -0.89631,-3.14191 -1.79258,-6.2837 -2.68888,-9.42554 -1.70588,-5.8694 -3.4117,-11.73856 -5.11755,-17.60784 -0.36623,-1.21436 -0.73245,-2.42867 -1.09868,-3.643 -0.0193,-0.18312 -0.0385,-0.36623 -0.0578,-0.54934 0.35659,-0.26986 0.71318,-0.53971 1.06977,-0.80956 1.99501,-2.07212 3.98995,-4.14415 5.98493,-6.21623 3.55633,-4.78033 7.11252,-9.56047 10.66878,-14.3407 2.3227,-4.45265 4.64531,-8.90511 6.96797,-13.35767 1.00232,-2.87205 2.00461,-5.74399 3.00692,-8.61598 1.21435,-5.64773 2.42866,-11.295234 3.643,-16.942849 0.0193,-5.185116 0.0385,-10.370023 0.0578,-15.555035 -0.45297,-2.698573 -0.90593,-5.397038 -1.35889,-8.095557 -1.27219,-4.423732 -2.54432,-8.847287 -3.81648,-13.270931 -2.85278,-5.580264 -5.70544,-11.160304 -8.55816,-16.740456 -2.82387,-4.471921 -5.64762,-8.943663 -8.47142,-13.415494 -3.2672,-3.922569 -6.53427,-7.844981 -9.80141,-11.767471 -2.2456,-2.327519 -4.49111,-4.6549451 -6.73666,-6.9824177 -0.37587,-0.3758727 -0.75173,-0.7517303 -1.1276,-1.1275955 0.34941,0.2513262 0.6988,0.5026424 1.04819,0.7539636 z" />
    <path
       style="fill:#24221c"
       d="m 155.82698,26.046126 11.69418,-13.329729 12.26662,13.493284 -12.22573,13.656838 -12.0117,-13.527046 z"
       id="path2" />
    <path
       style="fill:#24221c"
       d="M 112.77114,26.168792 124.66976,12.757286 136.85461,26.25057 124.75154,40.275407 Z"
       id="path3" />
    <path
       style="fill:#24221c"
       d="M 60.678887,26.291458 C 61.169552,25.92346 72.454844,12.63462 72.454844,12.63462 l 12.348398,13.411506 c 0,0 -11.571512,13.902171 -11.816845,13.779505 -0.245332,-0.122666 -12.30751,-13.534173 -12.30751,-13.534173 z"
       id="path4" />
    <path
       style="fill:#24221c"
       d="M 30.421221,52.664694 42.156289,39.048745 54.341133,52.910027 42.44251,66.362422 Z"
       id="path5" />
    <path
       style="fill:#24221c"
       d="M 87.256567,67.098419 98.868968,53.482469 111.29914,67.05753 99.318744,80.755257 Z"
       id="path6" />
    <path
       style="fill:#24221c"
       d="M 59.61578,106.26983 71.637069,92.858324 83.862801,106.22894 71.59618,119.84489 Z"
       id="path7" />
    <path
       style="fill:#24221c"
       d="m 92.163215,163.3914 11.775955,13.00262 12.06218,-12.96173 -11.65329,-13.41151 z"
       id="path8" />
    <path
       style="fill:#24221c"
       d="m 117.35068,112.28047 12.02129,-13.45239 11.93951,13.49328 c 0,0 -11.48974,13.12529 -11.77596,12.87996 -0.28622,-0.24534 -12.18484,-12.92085 -12.18484,-12.92085 z"
       id="path9" />
    <path
       style="fill:#24221c"
       d="m 138.04038,66.934864 11.77596,-13.084396 12.02128,13.411506 -12.02128,13.247951 z"
       id="path10" />
  </g>
</svg>
