<?xml version="1.0" encoding="UTF-8" standalone="no"?>
<!-- Created with Inkscape (http://www.inkscape.org/) -->

<svg
   version="1.1"
   id="svg1"
   width="856"
   height="856"
   viewBox="0 0 856 856"
   sodipodi:docname="head-robot.svg"
   inkscape:version="1.4 (86a8ad7, 2024-10-11)"
   xmlns:inkscape="http://www.inkscape.org/namespaces/inkscape"
   xmlns:sodipodi="http://sodipodi.sourceforge.net/DTD/sodipodi-0.dtd"
   xmlns="http://www.w3.org/2000/svg"
   xmlns:svg="http://www.w3.org/2000/svg">
  <defs
     id="defs1">
    <inkscape:path-effect
       effect="bspline"
       id="path-effect2"
       is_visible="true"
       lpeversion="1.3"
       weight="33.333333"
       steps="2"
       helper_size="0"
       apply_no_weight="true"
       apply_with_weight="true"
       only_selected="false"
       uniform="false" />
    <inkscape:path-effect
       effect="bspline"
       id="path-effect1"
       is_visible="true"
       lpeversion="1.3"
       weight="33.333333"
       steps="2"
       helper_size="0"
       apply_no_weight="true"
       apply_with_weight="true"
       only_selected="false"
       uniform="false" />
  </defs>
  <sodipodi:namedview
     id="namedview1"
     pagecolor="#ffffff"
     bordercolor="#000000"
     borderopacity="0.25"
     inkscape:showpageshadow="2"
     inkscape:pageopacity="0.0"
     inkscape:pagecheckerboard="0"
     inkscape:deskcolor="#d1d1d1"
     inkscape:zoom="0.4713785"
     inkscape:cx="-416.86245"
     inkscape:cy="525.05576"
     inkscape:window-width="1920"
     inkscape:window-height="1009"
     inkscape:window-x="-8"
     inkscape:window-y="-8"
     inkscape:window-maximized="1"
     inkscape:current-layer="g1" />
  <g
     inkscape:groupmode="layer"
     inkscape:label="Image"
     id="g1">
    <g
       id="g2"
       transform="matrix(1.4385147,0,0,1.6392203,-186.45509,31.272981)">
      <path
         style="fill:#dbdbdb;fill-opacity:1;stroke:#dbdbdb;stroke-width:17.853;stroke-linecap:round;stroke-linejoin:round;stroke-opacity:1"
         d="m 190.60427,130.19468 c 5.96908,-6.81287 17.2822,-19.56357 27.53286,-29.34543 10.25066,-9.78186 19.43848,-16.594598 29.03286,-23.188777 9.59438,-6.594178 19.59473,-12.969403 29.8454,-18.000968 10.25067,-5.031564 20.75104,-8.719194 31.50174,-12.031906 10.75071,-3.312713 21.7511,-6.250317 30.84542,-8.344195 9.09433,-2.093878 16.28208,-3.343921 27.59536,-4.594003 11.31328,-1.250081 26.75132,-2.500124 41.37726,-2.968897 14.62595,-0.468773 28.43894,-0.156262 40.72097,0.531287 12.28204,0.687548 23.03241,1.750085 34.56442,3.406448 11.53201,1.656364 23.84495,3.906445 35.93949,6.812891 12.09453,2.906446 23.96995,6.469072 32.12669,9.375506 8.15675,2.906433 12.5944,5.156509 18.59481,8.062956 6.00041,2.906447 13.56317,6.46907 20.56362,10.250568 7.00045,3.781498 13.43818,7.78164 20.25113,12.56321 6.81295,4.78157 14.0007,10.344264 20.62613,16.188397 6.62542,5.844133 12.68813,11.969353 18.75103,19.094823 6.0629,7.12548 12.12561,15.25076 17.21968,22.90751 5.09407,7.65674 9.21922,14.8445 13.31324,23.50132 4.09401,8.65683 8.15666,18.78219 11.15684,27.50149 3.00019,8.71931 4.93775,16.03207 6.50035,23.87633 1.5626,7.84427 2.75014,16.21956 3.12516,27.06404 0.37501,10.84449 -0.0625,24.15746 -1.21884,35.50193 -1.15633,11.34447 -3.0314,20.7198 -5.81284,30.34543 -2.78144,9.62563 -6.46906,19.50097 -10.96937,29.09534 -4.5003,9.59438 -9.81299,18.90721 -15.81338,27.56401 -6.0004,8.65681 -12.68813,16.65709 -19.18855,23.22001 -6.50043,6.56291 -12.81315,11.68809 -19.40733,16.37589 -6.59419,4.6878 -13.46943,8.93795 -19.87609,12.37567 -6.40666,3.43771 -12.34437,6.06281 -20.03239,8.25044 -7.68802,2.18764 -17.12585,3.9377 -26.40771,5.15653 -9.28185,1.21882 -18.40717,1.90635 -28.03281,2.84391 -9.62563,0.93757 -19.75098,2.12511 -35.81459,3.43769 -16.0636,1.31259 -38.06438,2.75014 -56.09676,3.40643 -18.03239,0.65628 -32.09539,0.53128 -46.12755,0.28126 -14.03216,-0.25002 -28.03266,-0.62503 -41.56479,-1.31258 -13.53212,-0.68755 -26.59508,-1.68758 -36.78321,-2.81266 -10.18814,-1.12507 -17.5009,-2.37511 -24.56386,-3.87521 -7.06296,-1.5001 -13.8757,-3.25017 -21.34494,-5.65658 -7.46924,-2.40641 -15.59453,-5.46902 -23.56379,-9.28178 -7.96927,-3.81275 -15.78205,-8.37542 -22.50123,-12.53193 -6.71917,-4.15652 -12.34437,-7.90665 -18.37602,-13.032 -6.03165,-5.12535 -12.46938,-11.62558 -17.46969,-17.15718 -5.00031,-5.5316 -8.56293,-10.09426 -12.87572,-16.96973 -4.31279,-6.87547 -9.37547,-16.06329 -13.28196,-24.62634 -3.90649,-8.56306 -6.65659,-16.50084 -8.81297,-23.90757 -2.15639,-7.40672 -3.71894,-14.28196 -4.96902,-21.71995 -1.25008,-7.438 -2.18762,-15.43828 -2.37512,-24.97016 -0.18751,-9.53189 0.37502,-20.59478 1.43759,-29.90787 1.06258,-9.31309 2.62513,-16.87585 4.31274,-24.03256 1.68762,-7.15672 3.50018,-13.90696 5.78158,-20.50113 2.2814,-6.59418 5.0315,-13.03191 7.34414,-18.21974 2.31265,-5.18782 4.18772,-9.12546 6.00033,-12.71944 1.81262,-3.59398 3.56268,-6.8441 5.21904,-9.9068 1.65636,-3.06269 3.21891,-5.93779 4.31273,-7.81291 1.09382,-1.87511 1.71884,-2.75014 7.68792,-9.56302 z"
         id="path2"
         inkscape:path-effect="#path-effect2"
         inkscape:original-d="m 185.26022,136.13251 c 11.31313,-12.7507 22.62625,-25.5014 33.93938,-38.252108 9.18819,-6.813012 18.37601,-13.625752 27.56402,-20.438628 10.00075,-6.375479 20.0011,-12.750704 30.00165,-19.126056 10.50079,-3.687777 21.00116,-7.375407 31.50174,-11.06311 11.00083,-2.937721 22.00122,-5.875324 33.00182,-8.812987 7.18805,-1.250094 14.3758,-2.500138 21.56369,-3.750206 15.43867,-1.250094 30.87671,-2.500138 46.31506,-3.750207 13.81354,0.312523 27.62653,0.625034 41.43979,0.937551 10.75081,1.06258 21.50118,2.125118 32.25178,3.187676 12.31342,2.250169 24.62636,4.500249 36.93954,6.750373 11.87589,3.562768 23.75131,7.125393 35.62696,10.68809 4.43784,2.250169 8.87549,4.500248 13.31324,6.750372 7.56307,3.562768 15.12583,7.125393 22.68875,10.68809 6.43798,4.000301 12.87571,8.000442 19.31357,12.000662 7.18804,5.562919 14.37579,11.125614 21.56369,16.688421 6.06295,6.125457 12.12566,12.250677 18.1885,18.376017 6.06296,8.12561 12.12567,16.25089 18.1885,24.37634 4.12531,7.18804 8.25046,14.3758 12.37569,21.56369 4.0628,10.12576 8.12544,20.25112 12.18817,30.37668 1.93764,7.31305 3.87521,14.62581 5.81282,21.93871 1.18759,8.37563 2.37513,16.75092 3.5627,25.12639 -0.43754,13.3135 -0.87505,26.62647 -1.31258,39.9397 -1.87514,9.37571 -3.7502,18.75104 -5.62531,28.12655 -3.68777,9.87575 -7.3754,19.75109 -11.06311,29.62664 -5.3129,9.3132 -10.62558,18.62603 -15.93838,27.93904 -6.688,8.0006 -13.37573,16.00088 -20.0636,24.00133 -6.31298,5.12538 -12.6257,10.25056 -18.93855,15.37584 -6.87552,4.25032 -13.75076,8.50047 -20.62614,12.75071 -5.93794,2.62519 -11.87565,5.25029 -17.81348,7.87543 -9.43821,1.75013 -18.87604,3.5002 -28.31406,5.25029 -9.12569,0.68755 -18.25101,1.37508 -27.37651,2.06262 -10.12577,1.18759 -20.25112,2.37513 -30.37668,3.56269 -22.00165,1.43761 -44.00243,2.87516 -66.00364,4.31274 -14.06356,-0.12501 -28.12656,-0.25001 -42.18983,-0.37502 -14.00105,-0.37503 -28.00155,-0.75004 -42.00232,-1.12506 -13.06348,-1.00008 -26.12644,-2.00011 -39.18966,-3.00017 -7.31305,-1.25009 -14.62581,-2.50014 -21.93871,-3.7502 -6.81302,-1.75014 -13.62576,-3.5002 -20.43863,-5.25029 -8.12561,-3.06273 -16.2509,-6.12534 -24.37635,-9.18801 -7.81308,-4.56284 -15.62586,-9.12551 -23.43879,-13.68826 -5.62542,-3.75028 -11.25062,-7.50041 -16.87593,-11.25062 -6.43799,-6.50049 -12.87571,-13.00072 -19.31357,-19.50107 -3.56277,-4.56285 -7.12539,-9.12551 -10.68809,-13.68826 -5.06288,-9.18819 -10.12556,-18.37601 -15.18834,-27.56402 -2.7502,-7.9381 -5.5003,-15.87588 -8.25045,-23.81382 -1.56262,-6.87551 -3.12517,-13.75075 -4.68776,-20.62613 -0.93757,-8.00061 -1.8751,-16.00089 -2.81266,-24.00133 0.56255,-11.06333 1.12507,-22.12622 1.6876,-33.18933 1.56262,-7.56307 3.12517,-15.12583 4.68776,-22.68875 1.81263,-6.75051 3.6252,-13.50075 5.4378,-20.25112 2.7502,-6.43798 5.5003,-12.87571 8.25045,-19.31357 1.87514,-3.93779 3.75021,-7.87543 5.62531,-11.81315 1.75013,-3.25024 3.5002,-6.50036 5.25029,-9.75054 1.56262,-2.87521 3.12517,-5.75031 4.68776,-8.62547 0.62505,-0.87507 1.25007,-1.7501 1.8751,-2.62515 z" />
      <path
         style="fill:#000000;stroke:#000000;stroke-width:17.853;stroke-linecap:round;stroke-linejoin:round"
         d="m 266.54555,267.01825 c 1.37432,-1.77228 3.84933,-4.82184 6.16967,-7.08694 2.32035,-2.26509 4.48594,-3.74564 6.67369,-4.89476 2.18776,-1.14912 4.39754,-1.96674 6.77313,-2.40871 2.3756,-0.44197 4.91685,-0.50826 7.38084,-0.37567 2.46398,0.13259 4.85055,0.46406 6.98305,1.02758 2.13251,0.56351 4.01083,1.35904 6.05495,2.49711 2.04411,1.13808 4.2539,2.61864 6.16542,4.19868 1.91152,1.58005 3.52466,3.25949 5.33675,5.56879 1.81208,2.3093 3.82298,5.24832 5.25938,7.91119 1.4364,2.66287 2.29822,5.04944 2.98327,7.28139 0.68505,2.23195 1.1933,4.30915 1.46953,5.99968 0.27623,1.69053 0.32042,2.99431 0.36462,3.98874 0.0442,0.99443 0.0884,1.67946 0.17935,2.067 0.091,0.38754 0.22871,0.47758 2.78214,0.47572 2.55343,-0.002 7.52235,-0.0956 14.00717,-0.22062 6.48481,-0.12501 14.48509,-0.28127 22.79813,-0.45316 8.31305,-0.17188 16.93835,-0.35939 26.04832,-0.65629 9.10998,-0.29689 18.70407,-0.70316 27.11085,-1.07818 8.40679,-0.37503 15.62579,-0.71879 24.3295,-1.2032 8.70371,-0.48441 18.89157,-1.10943 27.42335,-1.62508 8.53179,-0.51566 15.40704,-0.92193 21.18865,-1.34383 5.78162,-0.4219 10.46928,-0.85942 13.59447,-1.18756 3.12519,-0.32815 4.68774,-0.54691 5.51592,-0.76568 0.82817,-0.21877 0.92192,-0.43751 0.93755,-1.23444 0.0156,-0.79694 -0.0469,-2.17198 0.0625,-4.40651 0.10938,-2.23453 0.39064,-5.32839 1.04693,-8.07857 0.6563,-2.75017 1.68759,-5.15651 2.90642,-7.73481 1.21883,-2.57829 2.62513,-5.32838 4.20336,-7.53165 1.57823,-2.20326 3.32829,-3.85957 5.28155,-5.5628 1.95325,-1.70324 4.10957,-3.4533 6.28159,-4.70338 2.17202,-1.25008 4.35959,-2.0001 6.766,-2.62514 2.40641,-0.62504 5.0315,-1.12506 7.75043,-1.34382 2.71893,-0.21877 5.53153,-0.15626 7.54728,0.18751 2.01575,0.34378 3.23454,0.9688 5.1878,2.01575 1.95326,1.04695 4.64085,2.51575 6.90662,4.17211 2.26577,1.65636 4.10958,3.50018 5.95346,5.70345 1.84387,2.20327 3.68768,4.76586 5.07839,7.46916 1.39071,2.7033 2.32825,5.54715 3.03142,8.28171 0.70317,2.73455 1.17193,5.35964 1.37507,8.29733 0.20314,2.9377 0.14063,6.18781 -0.45316,9.50053 -0.5938,3.31272 -1.71884,6.68784 -3.0158,9.65678 -1.29696,2.96894 -2.76576,5.53153 -4.84403,8.0942 -2.07827,2.56266 -4.76586,5.12525 -7.56292,7.15663 -2.79706,2.03137 -5.70341,3.53143 -9.01613,4.67212 -3.31272,1.1407 -7.0316,1.92198 -10.67246,2.03135 -3.64086,0.10938 -7.20349,-0.45314 -9.59426,-1.00005 -2.39077,-0.54691 -3.60956,-1.07818 -5.10966,-1.90636 -1.5001,-0.82819 -3.28141,-1.95323 -4.87527,-3.23456 -1.59385,-1.28134 -3.00015,-2.71889 -4.34399,-4.23461 -1.34383,-1.51573 -2.62513,-3.10953 -3.67207,-4.65651 -1.04694,-1.54697 -1.85947,-3.04703 -2.46888,-4.15647 -0.60941,-1.10944 -1.01568,-1.82822 -3.12521,-1.95322 -2.10953,-0.125 -5.92216,0.34376 -10.60997,0.81254 -4.68782,0.46879 -10.25051,0.93755 -16.14152,1.39071 -5.89102,0.45315 -12.10999,0.89067 -18.87606,1.32819 -6.76607,0.43753 -14.07883,0.87505 -21.31368,1.25007 -7.23484,0.37502 -14.39134,0.68753 -21.23554,1.01568 -6.84419,0.32815 -13.37567,0.67191 -19.43856,0.92193 -6.06289,0.25001 -11.65684,0.40627 -19.1261,0.5469 -7.46925,0.14064 -16.81333,0.26564 -25.67327,0.37502 -8.85995,0.10939 -17.23525,0.20314 -22.98559,0.20314 -5.75035,0 -8.87546,-0.0938 -10.50055,-0.0312 -1.6251,0.0625 -1.7501,0.28126 -1.98449,0.96881 -0.23439,0.68755 -0.57815,1.84384 -1.28133,3.48458 -0.70317,1.64074 -1.76571,3.76581 -3.09392,5.76594 -1.32822,2.00013 -2.92202,3.8752 -4.59401,5.53155 -1.67199,1.65636 -3.42205,3.09391 -4.98465,4.07835 -1.5626,0.98443 -2.93765,1.5157 -4.84402,2.07823 -1.90638,0.56253 -4.34397,1.15631 -6.57849,1.48445 -2.23452,0.32814 -4.26584,0.39065 -5.93782,0.32814 -1.67198,-0.0625 -2.98453,-0.25001 -4.84403,-0.75004 -1.8595,-0.50004 -4.26583,-1.31256 -6.48473,-2.21888 -2.21889,-0.90631 -4.25021,-1.90634 -6.18784,-3.32832 -1.93762,-1.42197 -3.78144,-3.26578 -5.46905,-5.1409 -1.6876,-1.87513 -3.21891,-3.78144 -4.62525,-5.78158 -1.40634,-2.00013 -2.68763,-4.09395 -3.78145,-6.32847 -1.09382,-2.23452 -2.0001,-4.60961 -2.59389,-7.01602 -0.59378,-2.4064 -0.87504,-4.84399 -0.98442,-7.56292 -0.10939,-2.71893 -0.0469,-5.71903 0.35158,-8.74266 0.39847,-3.02364 1.13287,-6.07063 1.8126,-8.15669 0.67973,-2.08606 1.30475,-3.2111 1.75409,-4.02114 0.44933,-0.81003 0.72295,-1.30501 2.09727,-3.07729 z"
         id="path1"
         inkscape:path-effect="#path-effect1"
         inkscape:original-d="m 265.44486,268.29554 c 2.47501,-3.04957 4.95002,-6.09913 7.42503,-9.1487 2.16568,-1.48062 4.33127,-2.96117 6.4969,-4.44176 2.20988,-0.81765 4.41966,-1.63527 6.62949,-2.45291 2.54136,-0.0663 5.08261,-0.13259 7.62392,-0.19889 2.38666,0.33149 4.77323,0.66295 7.15985,0.99443 1.87839,0.79555 3.75671,1.59108 5.63507,2.38662 2.20987,1.48061 4.41966,2.96117 6.62949,4.44175 1.61321,1.67951 3.22635,3.35895 4.83953,5.03842 2.01099,2.93913 4.02189,5.87815 6.03284,8.81722 0.86185,2.38667 1.72367,4.77324 2.5855,7.15985 0.50827,2.07729 1.01652,4.15449 1.52478,6.23173 0.0442,1.30382 0.0884,2.6076 0.13259,3.9114 0.0442,0.68506 0.0884,1.37009 0.13259,2.05514 0.13774,0.09 0.27547,0.18007 0.4132,0.2701 4.96913,-0.0938 9.93805,-0.18751 14.90707,-0.28126 8.00061,-0.15627 16.00089,-0.31252 24.00133,-0.46878 8.62565,-0.18751 17.25095,-0.37502 25.87643,-0.56253 9.59447,-0.40628 19.18856,-0.81255 28.78284,-1.21882 7.21929,-0.34377 14.43829,-0.68754 21.65744,-1.03131 10.18827,-0.62504 20.37613,-1.25006 30.56419,-1.8751 6.87551,-0.40628 13.75076,-0.81254 20.62614,-1.21882 4.68785,-0.43753 9.37551,-0.87505 14.06327,-1.31257 1.56262,-0.21877 3.12517,-0.43752 4.68776,-0.65629 0.0938,-0.21876 0.18751,-0.43752 0.28127,-0.65628 -0.0625,-1.37511 -0.12501,-2.75015 -0.18751,-4.12523 0.28127,-3.09398 0.56253,-6.18784 0.84379,-9.28176 1.03133,-2.40643 2.06262,-4.81277 3.09392,-7.21915 1.40636,-2.75021 2.81266,-5.5003 4.21899,-8.25046 1.75013,-1.65637 3.50019,-3.31268 5.25029,-4.96902 2.15641,-1.75013 4.31273,-3.50019 6.4691,-5.25029 2.18767,-0.75006 4.37524,-1.50008 6.56287,-2.25012 2.62519,-0.50004 5.25028,-1.00006 7.87543,-1.50009 2.81271,0.0625 5.62531,0.12501 8.43797,0.18751 1.21884,0.62505 2.43763,1.25007 3.65645,1.87511 2.6877,1.46886 5.37529,2.93766 8.06294,4.40649 1.84389,1.84389 3.68771,3.6877 5.53156,5.53156 1.84389,2.56269 3.6877,5.12528 5.53155,7.68792 0.93757,2.84396 1.87511,5.68781 2.81266,8.53172 0.46878,2.6252 0.93755,5.25029 1.40633,7.87544 -0.0625,3.25024 -0.12501,6.50035 -0.18751,9.75053 -1.12509,3.37526 -2.25013,6.75038 -3.37519,10.12556 -1.46886,2.5627 -2.93766,5.12529 -4.40649,7.68793 -2.68771,2.56269 -5.3753,5.12528 -8.06295,7.68792 -2.90647,1.50011 -5.81282,3.00017 -8.71923,4.50025 -3.71903,0.78131 -7.43791,1.56259 -11.15687,2.34388 -3.56276,-0.56254 -7.12539,-1.12506 -10.68809,-1.68759 -1.21884,-0.53129 -2.43763,-1.06256 -3.65645,-1.59384 -1.78138,-1.12509 -3.56269,-2.25013 -5.34404,-3.37519 -1.40636,-1.43761 -2.81266,-2.87516 -4.21899,-4.31274 -1.28134,-1.59387 -2.56264,-3.18767 -3.84396,-4.78151 -0.81256,-1.50011 -1.62509,-3.00017 -2.43763,-4.50025 -0.40628,-0.7188 -0.81255,-1.43758 -1.21882,-2.15637 -3.81279,0.46879 -7.62542,0.93755 -11.43813,1.40633 -5.56292,0.46879 -11.12561,0.93755 -16.68842,1.40633 -6.21922,0.43753 -12.43819,0.87505 -18.65728,1.31257 -7.31305,0.43753 -14.62581,0.87505 -21.93871,1.31257 -7.15679,0.31253 -14.31329,0.62504 -21.46994,0.93755 -6.53174,0.34378 -13.06322,0.68754 -19.59483,1.03131 -5.59417,0.15626 -11.18812,0.31252 -16.78217,0.46878 -9.34446,0.12501 -18.68854,0.25001 -28.0328,0.37502 -8.37563,0.0937 -16.75093,0.18751 -25.12639,0.28126 -3.12523,-0.0937 -6.25034,-0.18751 -9.37552,-0.28126 -0.12501,0.21876 -0.25001,0.43752 -0.37502,0.65628 -0.34377,1.15634 -0.68753,2.31263 -1.0313,3.46895 -1.06258,2.12516 -2.12512,4.25023 -3.18768,6.37535 -1.59387,1.87514 -3.18768,3.7502 -4.78151,5.62531 -1.75014,1.43761 -3.5002,2.87516 -5.25029,4.31274 -1.37511,0.53129 -2.75016,1.06255 -4.12523,1.59383 -2.43768,0.5938 -4.87527,1.18757 -7.3129,1.78135 -2.03141,0.0625 -4.06273,0.12501 -6.09409,0.18751 -1.3126,-0.18751 -2.62515,-0.37502 -3.93772,-0.56253 -2.40643,-0.81256 -4.81276,-1.62509 -7.21915,-2.43763 -2.0314,-1.00008 -4.06272,-2.00011 -6.09408,-3.00017 -1.84389,-1.84389 -3.68771,-3.6877 -5.53156,-5.53155 -1.53136,-1.9064 -3.06267,-3.81271 -4.594,-5.71907 -1.28135,-2.09391 -2.56264,-4.18773 -3.84396,-6.2816 -0.90632,-2.37517 -1.8126,-4.75026 -2.7189,-7.12539 -0.28128,-2.43768 -0.56254,-4.87527 -0.8438,-7.3129 0.0625,-3.00023 0.12501,-6.00033 0.18751,-9.0005 0.73443,-3.0471 1.46883,-6.09409 2.20325,-9.14113 0.62504,-1.12508 1.25007,-2.25012 1.8751,-3.37519 0.27363,-0.495 0.54725,-0.98998 0.82088,-1.48497 z" />
    </g>
  </g>
</svg>
