<?xml version="1.0" encoding="UTF-8" standalone="no"?>
<!-- Created with Inkscape (http://www.inkscape.org/) -->

<svg
   version="1.1"
   id="svg1"
   width="270"
   height="270"
   viewBox="0 0 270 270"
   sodipodi:docname="cropped-Artboard-1-copy-2-270x270.svg"
   inkscape:version="1.4 (86a8ad7, 2024-10-11)"
   xmlns:inkscape="http://www.inkscape.org/namespaces/inkscape"
   xmlns:sodipodi="http://sodipodi.sourceforge.net/DTD/sodipodi-0.dtd"
   xmlns="http://www.w3.org/2000/svg"
   xmlns:svg="http://www.w3.org/2000/svg">
  <defs
     id="defs1" />
  <sodipodi:namedview
     id="namedview1"
     pagecolor="#ffffff"
     bordercolor="#000000"
     borderopacity="0.25"
     inkscape:showpageshadow="2"
     inkscape:pageopacity="0.0"
     inkscape:pagecheckerboard="0"
     inkscape:deskcolor="#d1d1d1"
     showgrid="false"
     inkscape:zoom="1.0567318"
     inkscape:cx="-26.023632"
     inkscape:cy="49.68148"
     inkscape:window-width="1920"
     inkscape:window-height="1009"
     inkscape:window-x="-8"
     inkscape:window-y="-8"
     inkscape:window-maximized="1"
     inkscape:current-layer="g1" />
  <g
     inkscape:groupmode="layer"
     inkscape:label="Image"
     id="g1">
    <path
       style="fill:#ff0000"
       d="M 31.405793,55.832521 42.938994,69.317494 55.241074,55.714231 43.412151,42.406692 Z"
       id="path1" />
    <path
       style="fill:#ff0000"
       d="M 61.628693,29.45402 73.102749,16.501349 84.872529,29.45402 73.457617,42.702415 Z"
       id="path2" />
    <path
       style="fill:#ff0000"
       d="m 113.14366,29.513165 c 0,0 11.41491,13.662407 11.59234,13.366684 0.17744,-0.295723 11.71064,-13.366684 11.71064,-13.366684 l -11.59235,-13.18925 z"
       id="path3" />
    <path
       style="fill:#ff0000"
       d="M 155.60949,29.45402 166.96526,16.087336 178.97162,29.45402 167.20184,42.998138 155.19548,29.868033 Z"
       id="path4" />
    <path
       style="fill:#ff0000"
       d="m 137.84387,69.549257 11.8355,-13.090149 11.45911,13.006505 -11.54275,12.83922 z"
       id="path5" />
    <path
       style="fill:#ff0000"
       d="m 117.18402,113.37825 11.91914,-13.424718 12.08643,13.675648 -11.96097,13.17379 z"
       id="path6" />
    <path
       style="fill:#ff0000"
       d="m 92.425651,163.81506 11.542749,-13.3829 12.17008,13.50836 -12.00279,13.3829 z"
       id="path7" />
    <path
       style="fill:#ff0000"
       d="M 60.504946,107.99807 72.097291,94.720108 83.955787,107.93893 71.949429,120.92117 Z"
       id="path8" />
    <path
       style="fill:#ff0000"
       d="M 87.32342,69.465613 C 88.954461,67.583643 99.200744,55.915428 99.200744,55.915428 L 111.5381,69.549257 99.200744,82.890335 Z"
       id="path9" />
    <path
       style="fill:#24221c"
       d="m 187.77881,8.9498141 13.04833,9.2007439 9.28438,7.77881 10.28811,10.70632 8.78253,11.542751 6.35687,11.79368 2.84387,8.866171 1.75651,6.858736 0.83643,8.866171 v 12.04461 l -1.58922,11.710033 -3.76394,13.80112 -4.93495,12.04461 -4.2658,9.03346 -10.03717,16.39405 -1.08736,1.92379 3.34572,12.63011 3.59666,16.64498 0.92007,12.63011 0.0836,7.10967 v 0.50186 c 0,0 0.50186,0.33457 -1.08736,0.33457 -1.58922,0 -7.02602,-0.25093 -7.02602,-0.25093 l -12.29554,-1.67286 -5.01858,0.33457 -1.08737,1.08736 0.0837,11.45911 -0.50186,1.84015 -2.50929,0.5855 -6.44053,-0.16729 -1.25464,1.33829 -1.25465,2.25837 v 3.01115 l 2.17472,5.4368 0.25093,1.17101 -0.41821,1.08736 -5.77138,4.09851 -4.68401,4.93495 -0.16729,1.25464 0.0836,2.76023 0.25093,4.43308 -0.75279,3.84758 -2.84386,3.34573 -4.60037,2.42565 h -6.18959 l -5.18588,-1.92379 -6.27323,-4.34944 -6.60781,-5.01859 -8.36431,-7.3606 -8.78253,-8.36431 -10.12082,-10.45539 -6.10595,-6.69145 -4.34944,-4.51673 6.18959,4.43309 8.61524,6.10595 c 0,0 8.94982,6.27323 9.36803,6.52416 0.41822,0.25093 14.38662,7.61152 14.38662,7.61152 l 14.13569,5.60409 3.76394,-4.01487 1.08736,-12.21189 3.26208,-3.01115 4.68402,-1.25465 -0.25093,-15.97584 c 0,0 0,-0.66914 0.33457,-0.66914 0.33457,0 11.62639,-0.5855 11.62639,-0.5855 l 0.75279,-11.96097 2.09108,-2.25837 2.09108,-0.50185 12.71375,-0.16729 3.01116,-0.25093 0.33457,-7.10967 -4.18216,-16.22676 -5.85502,-17.81599 4.01487,-5.01858 9.95354,-12.2119 11.29182,-19.99071 4.01487,-15.30669 1.7565,-8.615239 V 81.802974 l -1.171,-9.702602 -2.42565,-9.702602 -5.26952,-14.052045 -3.09479,-5.604089 -4.43309,-7.862454 -7.44424,-10.288104 -6.69145,-7.611524 -5.61554,-5.91951 -2.36579,-2.4545019 z"
       id="path10" />
  </g>
</svg>
