<?xml version="1.0" encoding="UTF-8" standalone="no"?>
<!-- Created with Inkscape (http://www.inkscape.org/) -->

<svg
   version="1.1"
   id="svg1"
   width="360"
   height="360"
   viewBox="0 0 360 360"
   sodipodi:docname="light-user-img.svg"
   inkscape:version="1.4 (86a8ad7, 2024-10-11)"
   xmlns:inkscape="http://www.inkscape.org/namespaces/inkscape"
   xmlns:sodipodi="http://sodipodi.sourceforge.net/DTD/sodipodi-0.dtd"
   xmlns="http://www.w3.org/2000/svg"
   xmlns:svg="http://www.w3.org/2000/svg">
  <defs
     id="defs1">
    <inkscape:path-effect
       effect="bspline"
       id="path-effect5"
       is_visible="true"
       lpeversion="1.3"
       weight="33.333333"
       steps="2"
       helper_size="0"
       apply_no_weight="true"
       apply_with_weight="true"
       only_selected="false"
       uniform="false" />
    <inkscape:path-effect
       effect="bspline"
       id="path-effect3"
       is_visible="true"
       lpeversion="1.3"
       weight="33.333333"
       steps="2"
       helper_size="0"
       apply_no_weight="true"
       apply_with_weight="true"
       only_selected="false"
       uniform="false" />
    <inkscape:path-effect
       effect="bspline"
       id="path-effect2"
       is_visible="true"
       lpeversion="1.3"
       weight="33.333333"
       steps="2"
       helper_size="0"
       apply_no_weight="true"
       apply_with_weight="true"
       only_selected="false"
       uniform="false" />
    <inkscape:path-effect
       effect="bspline"
       id="path-effect1"
       is_visible="true"
       lpeversion="1.3"
       weight="33.333333"
       steps="2"
       helper_size="0"
       apply_no_weight="true"
       apply_with_weight="true"
       only_selected="false"
       uniform="false" />
  </defs>
  <sodipodi:namedview
     id="namedview1"
     pagecolor="#ffffff"
     bordercolor="#000000"
     borderopacity="0.25"
     inkscape:showpageshadow="2"
     inkscape:pageopacity="0.0"
     inkscape:pagecheckerboard="0"
     inkscape:deskcolor="#d1d1d1"
     showgrid="false"
     inkscape:zoom="2.2416667"
     inkscape:cx="128.25279"
     inkscape:cy="302.67658"
     inkscape:window-width="1920"
     inkscape:window-height="1009"
     inkscape:window-x="-8"
     inkscape:window-y="-8"
     inkscape:window-maximized="1"
     inkscape:current-layer="g1" />
  <g
     inkscape:groupmode="layer"
     inkscape:label="Image"
     id="g1">
    <ellipse
       style="fill:none;stroke:#ffffff;stroke-width:7.45295;stroke-dasharray:none;stroke-opacity:1"
       id="path2"
       cx="179.16878"
       cy="115.76572"
       rx="64.104492"
       ry="62.527298" />
    <path
       style="fill:#ffffff;stroke:#ffffff;stroke-width:0.525;stroke-dasharray:none;stroke-opacity:1;fill-opacity:1"
       d="m 32.862455,305.12082 c 0.446097,0.60409 1.301112,1.42193 2.509307,1.7565 1.208196,0.33458 2.769502,0.18588 3.773224,-0.26022 1.003722,-0.44611 1.449811,-1.18959 1.895911,-5.01865 0.446101,-3.82907 0.892188,-10.74343 1.691456,-16.8959 0.799268,-6.15247 1.951662,-11.5427 3.141266,-16.02229 1.189604,-4.47959 2.416345,-8.04829 4.052053,-12.30484 1.635708,-4.25656 3.680276,-9.2007 6.468414,-14.31228 2.788138,-5.11157 6.319669,-10.39028 9.405197,-14.59105 3.085529,-4.20078 5.724879,-7.32339 9.144995,-11.04091 3.420117,-3.71751 7.620776,-8.02969 11.988852,-11.8959 4.368075,-3.8662 8.903303,-7.28621 12.453512,-9.8141 3.550208,-2.5279 6.115218,-4.16356 9.052048,-5.79927 2.93684,-1.6357 6.24532,-3.27135 9.79555,-4.96282 3.55022,-1.69147 7.34197,-3.43865 9.72116,-4.57248 2.37919,-1.13383 3.34572,-1.65427 3.88475,-2.45353 0.53904,-0.79927 0.65056,-1.87732 0.44609,-2.88105 -0.20447,-1.00372 -0.7249,-1.93307 -1.50558,-2.63939 -0.78068,-0.70633 -1.82155,-1.18959 -2.56505,-1.35687 -0.7435,-0.16729 -1.18959,-0.0186 -4.07068,1.24537 -2.8811,1.26396 -8.19697,3.6431 -13.5316,6.41264 -5.33463,2.76955 -10.687679,5.92934 -16.096657,9.73979 -5.408978,3.81046 -10.873553,8.27134 -15.855009,12.84387 -4.981456,4.57254 -9.479506,9.25646 -14.144982,15.05579 -4.665475,5.79932 -9.498093,12.71368 -12.806663,17.95536 -3.30857,5.24167 -5.09292,8.81037 -6.914499,12.97398 -1.821579,4.16362 -3.680277,8.92189 -5.22304,13.40149 -1.542763,4.47959 -2.769504,8.68025 -3.624528,12.30482 -0.855024,3.62456 -1.338286,6.67283 -1.895914,10.85504 -0.557627,4.18221 -1.189585,9.49809 -1.486982,13.16911 -0.297397,3.67103 -0.260224,5.69701 -0.223048,6.90519 0.03717,1.20818 0.07435,1.59851 0.520447,2.2026 z"
       id="path3"
       inkscape:path-effect="#path-effect3"
       inkscape:original-d="m 32.453532,304.90706 c 0.855018,0.81785 1.710037,1.63569 2.565055,2.45354 1.56137,-0.14871 3.122677,-0.2974 4.684015,-0.4461 0.446106,-0.74351 0.892194,-1.48699 1.33829,-2.23048 0.446106,-6.91464 0.892194,-13.829 1.33829,-20.7435 1.15244,-5.39044 2.304833,-10.78067 3.457249,-16.171 1.226791,-3.56885 2.453532,-7.13755 3.680298,-10.70632 2.04465,-4.94434 4.089219,-9.88848 6.133829,-14.83272 3.531669,-5.27891 7.063197,-10.55762 10.594795,-15.83643 2.639458,-3.12274 5.278811,-6.24535 7.918216,-9.36803 4.200827,-4.31235 8.401487,-8.62453 12.60223,-12.9368 4.535407,-3.42014 9.070632,-6.84015 13.605951,-10.26022 2.5651,-1.63572 5.13011,-3.27138 7.69516,-4.90707 3.30862,-1.63572 6.6171,-3.27137 9.92566,-4.90706 3.79189,-1.74725 7.58364,-3.49442 11.37546,-5.24164 0.96656,-0.52045 1.93309,-1.04089 2.89963,-1.56133 0.11152,-1.07809 0.22305,-2.15614 0.33457,-3.2342 -0.52046,-0.92939 -1.04089,-1.85874 -1.56134,-2.78811 -1.04091,-0.48328 -2.08178,-0.96654 -3.12267,-1.44981 -0.44611,0.1487 -0.8922,0.29739 -1.33829,0.44609 -5.3161,2.37923 -10.63197,4.75837 -15.94796,7.13755 -5.35327,3.15991 -10.706319,6.3197 -16.059479,9.47955 -5.464794,4.46106 -10.929368,8.92194 -16.394052,13.3829 -4.498231,4.68411 -8.996283,9.36803 -13.494424,14.05205 -4.83281,6.91463 -9.665428,13.82899 -14.498141,20.74349 -1.784423,3.56885 -3.568774,7.13755 -5.35316,10.70632 -1.858773,4.75846 -3.717472,9.51673 -5.576208,14.2751 -1.226791,4.20082 -2.453532,8.40148 -3.680298,12.60223 -0.483281,3.04838 -0.966543,6.09665 -1.449814,9.14498 -0.631983,5.31609 -1.26394,10.63197 -1.895911,15.94795 0.03718,2.02607 0.07435,4.05205 0.111524,6.07807 0.03718,0.39034 0.07435,0.78067 0.111525,1.171 z" />
    <path
       style="fill:#ffffff;fill-opacity:1;stroke:#ffffff;stroke-width:0.525;stroke-dasharray:none;stroke-opacity:1"
       d="m 32.862455,305.12082 c 0.446097,0.60409 1.301112,1.42193 2.509307,1.7565 1.208196,0.33458 2.769502,0.18588 3.773224,-0.26022 1.003722,-0.44611 1.449811,-1.18959 1.895911,-5.01865 0.446101,-3.82907 0.892188,-10.74343 1.691456,-16.8959 0.799268,-6.15247 1.951662,-11.5427 3.141266,-16.02229 1.189604,-4.47959 2.416345,-8.04829 4.052053,-12.30484 1.635708,-4.25656 3.680276,-9.2007 6.468414,-14.31228 2.788138,-5.11157 6.319669,-10.39028 9.405197,-14.59105 3.085529,-4.20078 5.724879,-7.32339 9.144995,-11.04091 3.420117,-3.71751 7.620776,-8.02969 11.988852,-11.8959 4.368075,-3.8662 8.903303,-7.28621 12.453512,-9.8141 3.550208,-2.5279 6.115218,-4.16356 9.052048,-5.79927 2.93684,-1.6357 6.24532,-3.27135 9.79555,-4.96282 3.55022,-1.69147 7.34197,-3.43865 9.72116,-4.57248 2.37919,-1.13383 3.34572,-1.65427 3.88475,-2.45353 0.53904,-0.79927 0.65056,-1.87732 0.44609,-2.88105 -0.20447,-1.00372 -0.7249,-1.93307 -1.50558,-2.63939 -0.78068,-0.70633 -1.82155,-1.18959 -2.56505,-1.35687 -0.7435,-0.16729 -1.18959,-0.0186 -4.07068,1.24537 -2.8811,1.26396 -8.19697,3.6431 -13.5316,6.41264 -5.33463,2.76955 -10.687679,5.92934 -16.096657,9.73979 -5.408978,3.81046 -10.873553,8.27134 -15.855009,12.84387 -4.981456,4.57254 -9.479506,9.25646 -14.144982,15.05579 -4.665475,5.79932 -9.498093,12.71368 -12.806663,17.95536 -3.30857,5.24167 -5.09292,8.81037 -6.914499,12.97398 -1.821579,4.16362 -3.680277,8.92189 -5.22304,13.40149 -1.542763,4.47959 -2.769504,8.68025 -3.624528,12.30482 -0.855024,3.62456 -1.338286,6.67283 -1.895914,10.85504 -0.557627,4.18221 -1.189585,9.49809 -1.486982,13.16911 -0.297397,3.67103 -0.260224,5.69701 -0.223048,6.90519 0.03717,1.20818 0.07435,1.59851 0.520447,2.2026 z"
       id="path4"
       inkscape:path-effect="#path-effect5"
       inkscape:original-d="m 32.453532,304.90706 c 0.855018,0.81785 1.710037,1.63569 2.565055,2.45354 1.56137,-0.14871 3.122677,-0.2974 4.684015,-0.4461 0.446106,-0.74351 0.892194,-1.48699 1.33829,-2.23048 0.446106,-6.91464 0.892194,-13.829 1.33829,-20.7435 1.15244,-5.39044 2.304833,-10.78067 3.457249,-16.171 1.226791,-3.56885 2.453532,-7.13755 3.680298,-10.70632 2.04465,-4.94434 4.089219,-9.88848 6.133829,-14.83272 3.531669,-5.27891 7.063197,-10.55762 10.594795,-15.83643 2.639458,-3.12274 5.278811,-6.24535 7.918216,-9.36803 4.200827,-4.31235 8.401487,-8.62453 12.60223,-12.9368 4.535407,-3.42014 9.070632,-6.84015 13.605951,-10.26022 2.5651,-1.63572 5.13011,-3.27138 7.69516,-4.90707 3.30862,-1.63572 6.6171,-3.27137 9.92566,-4.90706 3.79189,-1.74725 7.58364,-3.49442 11.37546,-5.24164 0.96656,-0.52045 1.93309,-1.04089 2.89963,-1.56133 0.11152,-1.07809 0.22305,-2.15614 0.33457,-3.2342 -0.52046,-0.92939 -1.04089,-1.85874 -1.56134,-2.78811 -1.04091,-0.48328 -2.08178,-0.96654 -3.12267,-1.44981 -0.44611,0.1487 -0.8922,0.29739 -1.33829,0.44609 -5.3161,2.37923 -10.63197,4.75837 -15.94796,7.13755 -5.35327,3.15991 -10.706319,6.3197 -16.059479,9.47955 -5.464794,4.46106 -10.929368,8.92194 -16.394052,13.3829 -4.498231,4.68411 -8.996283,9.36803 -13.494424,14.05205 -4.83281,6.91463 -9.665428,13.82899 -14.498141,20.74349 -1.784423,3.56885 -3.568774,7.13755 -5.35316,10.70632 -1.858773,4.75846 -3.717472,9.51673 -5.576208,14.2751 -1.226791,4.20082 -2.453532,8.40148 -3.680298,12.60223 -0.483281,3.04838 -0.966543,6.09665 -1.449814,9.14498 -0.631983,5.31609 -1.26394,10.63197 -1.895911,15.94795 0.03718,2.02607 0.07435,4.05205 0.111524,6.07807 0.03718,0.39034 0.07435,0.78067 0.111525,1.171 z"
       transform="rotate(109.94461,179.14079,306.89364)" />
  </g>
</svg>
